<svg width="55" height="55" viewBox="0 0 55 55" fill="none" xmlns="http://www.w3.org/2000/svg">
<rect x="0.5" y="0.5" width="54" height="54" rx="27" stroke="#2E2E1F" stroke-opacity="0.12" style="stroke:#2E2E1F;stroke:color(display-p3 0.1804 0.1804 0.1216);stroke-opacity:0.12;"/>
<path d="M35.171 18.8067L28.7543 16.4034C28.0893 16.1584 27.0043 16.1584 26.3393 16.4034L19.9227 18.8067C18.686 19.2734 17.6827 20.72 17.6827 22.0384V31.4884C17.6827 32.4334 18.301 33.6817 19.0593 34.2417L25.476 39.0367C26.6077 39.8884 28.4627 39.8884 29.5943 39.0367L36.011 34.2417C36.7693 33.67 37.3877 32.4334 37.3877 31.4884V22.0384C37.3993 20.72 36.396 19.2734 35.171 18.8067ZM31.601 25.34L26.5843 30.3567C26.4093 30.5317 26.1877 30.6134 25.966 30.6134C25.7443 30.6134 25.5227 30.5317 25.3477 30.3567L23.481 28.4667C23.1427 28.1284 23.1427 27.5684 23.481 27.23C23.8193 26.8917 24.3793 26.8917 24.7177 27.23L25.9777 28.49L30.376 24.0917C30.7143 23.7534 31.2743 23.7534 31.6127 24.0917C31.951 24.43 31.951 25.0017 31.601 25.34Z" fill="#1D49C5" style="fill:#1D49C5;fill:color(display-p3 0.1137 0.2863 0.7725);fill-opacity:1;"/>
</svg>
