<svg width="1440" height="63" viewBox="0 0 1440 63" fill="none" xmlns="http://www.w3.org/2000/svg">
<g opacity="0.34">
<path fill-rule="evenodd" clip-rule="evenodd" d="M-66.8798 51.0813C-66.446 50.2126 -66.446 50.2126 -65.8388 50.8207C-65.2315 51.4287 -63.9302 52.6449 -62.3686 54.0347C-60.8071 55.4246 -59.072 57.075 -56.643 58.6386C-54.2139 60.2022 -51.1775 61.8527 -47.9677 62.2002C-44.8446 62.5476 -41.6347 61.679 -32.5257 54.9034C-23.4166 48.1278 -8.4084 35.5322 0.613892 28.2354C9.63618 20.9386 12.5858 19.0275 16.1426 18.9407C19.6995 18.8538 23.7769 20.5042 26.9 23.1102C29.9363 25.8031 31.9317 29.4515 32.3654 33.1868C32.7992 36.922 31.5847 40.7441 30.0231 43.6976C28.4616 46.6511 26.3795 48.8227 24.0372 50.0389C21.6948 51.255 18.9187 51.4287 17.6174 51.6025C16.2294 51.6893 16.2294 51.6893 16.6632 50.9944C17.0102 50.2995 17.791 48.9096 17.6174 47.1723C17.4439 45.4349 16.4029 43.3501 14.4944 41.5259C12.5858 39.6149 9.89644 37.9644 7.81438 37.9644C5.64556 38.0513 4.08401 39.8755 2.69597 42.3077C1.30792 44.8269 0.0933721 47.9541 -2.1622 50.7338C-4.41777 53.5135 -7.62762 55.8589 -9.27592 57.0751C-10.9242 58.2912 -10.9242 58.2912 -9.01567 58.4649C-7.10711 58.6386 -3.37673 59.073 -0.427139 58.4649C2.52246 57.77 4.69128 56.1195 6.33958 55.9458C7.98789 55.7721 9.11566 57.2488 11.5447 58.4649C13.9738 59.7679 17.6174 60.8972 21.1743 60.8972C24.7312 60.8972 28.1145 59.8548 31.4111 57.6831C34.7077 55.5115 37.8309 52.2974 40.0864 48.2147C42.342 44.1319 43.73 39.0937 43.8168 34.8372C43.9035 30.5808 42.7758 27.0192 41.2142 23.8052C39.6527 20.5911 37.6574 17.6377 34.7945 15.0317C31.9317 12.4257 28.2013 10.254 24.5577 8.951C20.914 7.648 17.5307 7.1268 13.9738 7.648C10.417 8.1692 6.77334 9.81967 -2.24895 16.5953C-11.1845 23.3708 -25.412 35.3584 -33.9137 41.9603C-42.3287 48.5621 -45.0181 49.8651 -47.7074 49.7783C-50.3967 49.6914 -53.1728 48.3015 -55.3417 46.8248C-57.5105 45.3481 -59.072 43.6976 -60.2866 42.134C-61.5011 40.5704 -62.3686 38.9199 -62.7157 36.2271C-63.1494 33.4474 -63.0627 29.5384 -62.6289 26.7586C-62.1951 23.9789 -61.5011 22.2416 -60.5468 20.5042C-59.5925 18.7669 -58.378 17.0296 -56.7297 15.9003C-55.0814 14.6842 -52.9126 14.0761 -50.8305 14.163C-48.7485 14.2499 -46.6664 15.0317 -46.2326 15.9872C-45.7989 16.9427 -47.1002 17.9851 -46.9267 19.983C-46.8399 21.981 -45.2783 24.9344 -43.8035 26.8455C-42.3287 28.6697 -40.854 29.4515 -39.2924 29.4515C-37.7309 29.4515 -36.1693 28.6697 -34.6077 26.7586C-33.0462 24.8476 -31.5714 21.8072 -29.4893 18.6801C-27.4073 15.5529 -24.8047 12.4257 -23.5034 10.8621C-22.2021 9.29847 -22.2021 9.29847 -24.8047 9.55907C-27.4073 9.81967 -32.5257 10.3409 -36.7766 9.7328C-41.1142 9.12473 -44.5843 7.3874 -47.1869 6.25814C-49.7895 5.21574 -51.351 4.78141 -53.0861 4.78141C-54.8211 4.78141 -56.7297 5.04201 -58.6383 6.43187C-60.5468 7.73487 -62.4554 10.1671 -63.6699 11.6439C-64.8845 13.1206 -65.3182 13.7287 -65.752 12.6863C-66.1858 11.6439 -66.446 8.86414 -66.793 6.86621C-67.14 4.86828 -67.4003 3.65214 -67.7473 2.78348C-68.0943 1.91481 -68.5281 1.13302 -68.9619 0.611816C-69.3956 1.13302 -69.7426 1.91481 -70.0896 2.87035C-70.4367 3.82588 -70.6969 5.12888 -70.9572 7.1268C-71.3042 9.12473 -71.6512 11.8176 -71.9982 12.86C-72.432 13.9024 -72.8657 13.2943 -74.0803 11.8176C-75.2948 10.3409 -77.2034 7.9086 -79.1119 6.60561C-81.0205 5.30261 -82.9291 4.95514 -84.6641 4.95514C-86.3992 4.95514 -88.0475 5.38947 -90.5633 6.43187C-93.1659 7.47427 -96.636 9.29847 -100.974 9.90653C-105.311 10.5146 -110.43 9.9934 -112.946 9.7328C-115.548 9.4722 -115.548 9.4722 -114.247 11.0358C-112.946 12.5994 -110.343 15.7266 -108.261 18.8538C-106.179 21.981 -104.704 25.0213 -103.142 26.9324C-101.581 28.8434 -100.019 29.6252 -98.4578 29.6252C-96.8963 29.6252 -95.4215 28.8434 -93.9467 27.0192C-92.4719 25.195 -90.9103 22.1547 -90.8236 20.1568C-90.7368 18.1589 -91.9514 17.0296 -91.5176 16.1609C-91.0838 15.2054 -89.0018 14.4236 -86.9197 14.3367C-84.8376 14.2499 -82.6688 14.8579 -81.0205 16.0741C-79.3722 17.2902 -78.1577 19.0275 -77.2034 20.678C-76.2491 22.4153 -75.5551 24.0658 -75.1213 26.9324C-74.6875 29.7121 -74.6875 33.6211 -75.0346 36.4008C-75.4683 39.1806 -76.2491 40.7441 -77.4636 42.3077C-78.6782 43.8713 -80.2397 45.5218 -82.4085 46.9985C-84.5774 48.4753 -87.3534 49.8651 -90.0428 49.952C-92.7321 50.0389 -95.4215 48.7359 -103.836 42.134C-112.252 35.5322 -126.566 23.5446 -135.501 16.769C-144.437 9.9934 -148.167 8.4298 -151.724 7.82174C-155.281 7.30054 -158.751 7.73487 -162.308 9.12473C-165.951 10.4277 -169.682 12.6863 -172.545 15.2054C-175.408 17.8114 -177.403 20.7648 -178.964 23.9789C-180.526 27.193 -181.654 30.7545 -181.567 35.011C-181.48 39.2674 -180.092 44.2188 -177.837 48.3884C-175.581 52.4711 -172.371 55.6852 -169.161 57.8568C-165.865 60.0285 -162.481 61.1578 -158.925 61.0709C-155.368 61.0709 -151.724 59.8548 -149.295 58.6386C-146.866 57.3356 -145.738 55.9458 -144.09 56.1195C-142.441 56.2933 -140.273 58.0306 -137.323 58.6386C-134.373 59.3336 -130.643 58.8992 -128.735 58.6386C-126.826 58.4649 -126.826 58.4649 -128.474 57.2488C-130.123 56.0327 -133.332 53.6873 -135.588 50.9075C-137.844 48.1278 -139.058 44.9137 -140.446 42.4815C-141.834 39.9623 -143.396 38.1381 -145.565 38.1381C-147.733 38.0513 -150.423 39.7886 -152.245 41.6997C-154.153 43.6107 -155.194 45.6955 -155.368 47.346C-155.541 49.0833 -154.76 50.4732 -154.413 51.1681C-154.066 51.8631 -154.066 51.8631 -155.368 51.7762C-156.756 51.6893 -159.445 51.4287 -161.787 50.2126C-164.13 48.9965 -166.212 46.8248 -167.773 43.8713C-169.335 40.9179 -170.549 37.0957 -170.116 33.3605C-169.682 29.6252 -167.687 25.9768 -164.65 23.284C-161.614 20.5911 -157.45 18.9407 -153.893 19.1144C-150.336 19.2013 -147.386 21.1123 -138.364 28.4091C-129.342 35.7059 -114.334 48.3015 -105.225 55.0771C-96.1155 61.8527 -92.9056 62.7214 -89.7825 62.3739C-86.6594 62.0264 -83.5363 60.4628 -81.1073 58.8124C-78.6782 57.2488 -76.9431 55.5983 -75.3816 54.2085C-73.82 52.8186 -72.5187 51.6025 -71.9115 50.9944C-71.2174 50.3863 -71.2174 50.3863 -70.8704 51.255C-68.0076 58.1175 -69.6577 58.134 -66.8798 51.0813Z" stroke="#1D1D1D" style="stroke:#1D1D1D;stroke:color(display-p3 0.1129 0.1129 0.1129);stroke-opacity:1;" stroke-width="0.782615"/>
<path fill-rule="evenodd" clip-rule="evenodd" d="M158.513 51.0813C158.947 50.2126 158.947 50.2126 159.554 50.8207C160.162 51.4287 161.463 52.6449 163.025 54.0347C164.586 55.4246 166.321 57.075 168.75 58.6386C171.179 60.2022 174.216 61.8527 177.425 62.2002C180.549 62.5476 183.758 61.679 192.867 54.9034C201.977 48.1278 216.985 35.5322 226.007 28.2354C235.029 20.9386 237.979 19.0275 241.536 18.9407C245.093 18.8538 249.17 20.5042 252.293 23.1102C255.33 25.8031 257.325 29.4515 257.759 33.1868C258.192 36.922 256.978 40.7441 255.416 43.6976C253.855 46.6511 251.773 48.8227 249.43 50.0389C247.088 51.255 244.312 51.4287 243.011 51.6025C241.623 51.6893 241.623 51.6893 242.056 50.9944C242.403 50.2995 243.184 48.9096 243.011 47.1723C242.837 45.4349 241.796 43.3501 239.888 41.5259C237.979 39.6149 235.29 37.9644 233.208 37.9644C231.039 38.0513 229.477 39.8755 228.089 42.3077C226.701 44.8269 225.487 47.9541 223.231 50.7338C220.975 53.5135 217.766 55.8589 216.117 57.0751C214.469 58.2912 214.469 58.2912 216.377 58.4649C218.286 58.6386 222.016 59.073 224.966 58.4649C227.916 57.77 230.084 56.1195 231.733 55.9458C233.381 55.7721 234.509 57.2488 236.938 58.4649C239.367 59.7679 243.011 60.8972 246.567 60.8972C250.124 60.8972 253.508 59.8548 256.804 57.6831C260.101 55.5115 263.224 52.2974 265.48 48.2147C267.735 44.1319 269.123 39.0937 269.21 34.8372C269.297 30.5808 268.169 27.0192 266.607 23.8052C265.046 20.5911 263.051 17.6377 260.188 15.0317C257.325 12.4257 253.594 10.254 249.951 8.951C246.307 7.648 242.924 7.1268 239.367 7.648C235.81 8.1692 232.167 9.81967 223.144 16.5953C214.209 23.3708 199.981 35.3584 191.479 41.9603C183.064 48.5621 180.375 49.8651 177.686 49.7783C174.996 49.6914 172.22 48.3015 170.051 46.8248C167.883 45.3481 166.321 43.6976 165.107 42.134C163.892 40.5704 163.025 38.9199 162.678 36.2271C162.244 33.4474 162.33 29.5384 162.764 26.7586C163.198 23.9789 163.892 22.2416 164.846 20.5042C165.801 18.7669 167.015 17.0296 168.663 15.9003C170.312 14.6842 172.481 14.0761 174.563 14.163C176.645 14.2499 178.727 15.0317 179.161 15.9872C179.594 16.9427 178.293 17.9851 178.467 19.983C178.553 21.981 180.115 24.9344 181.59 26.8455C183.064 28.6697 184.539 29.4515 186.101 29.4515C187.662 29.4515 189.224 28.6697 190.785 26.7586C192.347 24.8476 193.822 21.8072 195.904 18.6801C197.986 15.5529 200.588 12.4257 201.89 10.8621C203.191 9.29847 203.191 9.29847 200.588 9.55907C197.986 9.81967 192.867 10.3409 188.617 9.7328C184.279 9.12473 180.809 7.3874 178.206 6.25814C175.604 5.21574 174.042 4.78141 172.307 4.78141C170.572 4.78141 168.663 5.04201 166.755 6.43187C164.846 7.73487 162.938 10.1671 161.723 11.6439C160.509 13.1206 160.075 13.7287 159.641 12.6863C159.207 11.6439 158.947 8.86414 158.6 6.86621C158.253 4.86828 157.993 3.65214 157.646 2.78348C157.299 1.91481 156.865 1.13302 156.431 0.611816C155.998 1.13302 155.651 1.91481 155.304 2.87035C154.957 3.82588 154.696 5.12888 154.436 7.1268C154.089 9.12473 153.742 11.8176 153.395 12.86C152.961 13.9024 152.527 13.2943 151.313 11.8176C150.098 10.3409 148.19 7.9086 146.281 6.60561C144.373 5.30261 142.464 4.95514 140.729 4.95514C138.994 4.95514 137.346 5.38947 134.83 6.43187C132.227 7.47427 128.757 9.29847 124.42 9.90653C120.082 10.5146 114.963 9.9934 112.448 9.7328C109.845 9.4722 109.845 9.4722 111.146 11.0358C112.448 12.5994 115.05 15.7266 117.132 18.8538C119.214 21.981 120.689 25.0213 122.251 26.9324C123.812 28.8434 125.374 29.6252 126.935 29.6252C128.497 29.6252 129.972 28.8434 131.446 27.0192C132.921 25.195 134.483 22.1547 134.57 20.1568C134.656 18.1589 133.442 17.0296 133.876 16.1609C134.309 15.2054 136.391 14.4236 138.473 14.3367C140.556 14.2499 142.724 14.8579 144.373 16.0741C146.021 17.2902 147.236 19.0275 148.19 20.678C149.144 22.4153 149.838 24.0658 150.272 26.9324C150.706 29.7121 150.706 33.6211 150.359 36.4008C149.925 39.1806 149.144 40.7441 147.93 42.3077C146.715 43.8713 145.153 45.5218 142.985 46.9985C140.816 48.4753 138.04 49.8651 135.35 49.952C132.661 50.0389 129.972 48.7359 121.557 42.134C113.142 35.5322 98.8274 23.5446 89.8919 16.769C80.9564 9.9934 77.226 8.4298 73.6691 7.82174C70.1123 7.30054 66.6421 7.73487 63.0853 9.12473C59.4417 10.4277 55.7113 12.6863 52.8484 15.2054C49.9856 17.8114 47.9903 20.7648 46.4287 23.9789C44.8672 27.193 43.7394 30.7545 43.8262 35.011C43.9129 39.2674 45.301 44.2188 47.5565 48.3884C49.8121 52.4711 53.022 55.6852 56.2318 57.8568C59.5284 60.0285 62.9118 61.1578 66.4686 61.0709C70.0255 61.0709 73.6691 59.8548 76.0982 58.6386C78.5273 57.3356 79.6551 55.9458 81.3034 56.1195C82.9517 56.2933 85.1205 58.0306 88.0701 58.6386C91.0197 59.3336 94.7501 58.8992 96.6586 58.6386C98.5672 58.4649 98.5672 58.4649 96.9189 57.2488C95.2706 56.0327 92.0607 53.6873 89.8051 50.9075C87.5496 48.1278 86.335 44.9137 84.947 42.4815C83.5589 39.9623 81.9974 38.1381 79.8286 38.1381C77.6598 38.0513 74.9704 39.7886 73.1486 41.6997C71.24 43.6107 70.199 45.6955 70.0255 47.346C69.852 49.0833 70.6328 50.4732 70.9798 51.1681C71.3268 51.8631 71.3268 51.8631 70.0255 51.7762C68.6375 51.6893 65.9481 51.4287 63.6058 50.2126C61.2635 48.9965 59.1814 46.8248 57.6199 43.8713C56.0583 40.9179 54.8438 37.0957 55.2775 33.3605C55.7113 29.6252 57.7066 25.9768 60.743 23.284C63.7793 20.5911 67.9434 18.9407 71.5003 19.1144C75.0572 19.2013 78.0068 21.1123 87.0291 28.4091C96.0513 35.7059 111.06 48.3015 120.169 55.0771C129.278 61.8527 132.488 62.7214 135.611 62.3739C138.734 62.0264 141.857 60.4628 144.286 58.8124C146.715 57.2488 148.45 55.5983 150.012 54.2085C151.573 52.8186 152.874 51.6025 153.482 50.9944C154.176 50.3863 154.176 50.3863 154.523 51.255C157.386 58.1175 155.735 58.134 158.513 51.0813Z" stroke="#1D1D1D" style="stroke:#1D1D1D;stroke:color(display-p3 0.1129 0.1129 0.1129);stroke-opacity:1;" stroke-width="0.782615"/>
<path fill-rule="evenodd" clip-rule="evenodd" d="M383.906 51.0813C384.34 50.2126 384.34 50.2126 384.948 50.8207C385.555 51.4287 386.856 52.6449 388.418 54.0347C389.979 55.4246 391.714 57.075 394.143 58.6386C396.572 60.2022 399.609 61.8527 402.819 62.2002C405.942 62.5476 409.152 61.679 418.261 54.9034C427.37 48.1278 442.378 35.5322 451.4 28.2354C460.422 20.9386 463.372 19.0275 466.929 18.9407C470.486 18.8538 474.563 20.5042 477.686 23.1102C480.723 25.8031 482.718 29.4515 483.152 33.1868C483.585 36.922 482.371 40.7441 480.809 43.6976C479.248 46.6511 477.166 48.8227 474.823 50.0389C472.481 51.255 469.705 51.4287 468.404 51.6025C467.016 51.6893 467.016 51.6893 467.449 50.9944C467.796 50.2995 468.577 48.9096 468.404 47.1723C468.23 45.4349 467.189 43.3501 465.281 41.5259C463.372 39.6149 460.683 37.9644 458.601 37.9644C456.432 38.0513 454.87 39.8755 453.482 42.3077C452.094 44.8269 450.88 47.9541 448.624 50.7338C446.369 53.5135 443.159 55.8589 441.51 57.0751C439.862 58.2912 439.862 58.2912 441.771 58.4649C443.679 58.6386 447.41 59.073 450.359 58.4649C453.309 57.77 455.478 56.1195 457.126 55.9458C458.774 55.7721 459.902 57.2488 462.331 58.4649C464.76 59.7679 468.404 60.8972 471.961 60.8972C475.517 60.8972 478.901 59.8548 482.197 57.6831C485.494 55.5115 488.617 52.2974 490.873 48.2147C493.128 44.1319 494.516 39.0937 494.603 34.8372C494.69 30.5808 493.562 27.0192 492 23.8052C490.439 20.5911 488.444 17.6377 485.581 15.0317C482.718 12.4257 478.988 10.254 475.344 8.951C471.7 7.648 468.317 7.1268 464.76 7.648C461.203 8.1692 457.56 9.81967 448.537 16.5953C439.602 23.3708 425.374 35.3584 416.873 41.9603C408.458 48.5621 405.768 49.8651 403.079 49.7783C400.39 49.6914 397.613 48.3015 395.445 46.8248C393.276 45.3481 391.714 43.6976 390.5 42.134C389.285 40.5704 388.418 38.9199 388.071 36.2271C387.637 33.4474 387.724 29.5384 388.157 26.7586C388.591 23.9789 389.285 22.2416 390.239 20.5042C391.194 18.7669 392.408 17.0296 394.057 15.9003C395.705 14.6842 397.874 14.0761 399.956 14.163C402.038 14.2499 404.12 15.0317 404.554 15.9872C404.987 16.9427 403.686 17.9851 403.86 19.983C403.946 21.981 405.508 24.9344 406.983 26.8455C408.458 28.6697 409.932 29.4515 411.494 29.4515C413.055 29.4515 414.617 28.6697 416.179 26.7586C417.74 24.8476 419.215 21.8072 421.297 18.6801C423.379 15.5529 425.982 12.4257 427.283 10.8621C428.584 9.29847 428.584 9.29847 425.982 9.55907C423.379 9.81967 418.261 10.3409 414.01 9.7328C409.672 9.12473 406.202 7.3874 403.599 6.25814C400.997 5.21574 399.435 4.78141 397.7 4.78141C395.965 4.78141 394.057 5.04201 392.148 6.43187C390.239 7.73487 388.331 10.1671 387.116 11.6439C385.902 13.1206 385.468 13.7287 385.034 12.6863C384.601 11.6439 384.34 8.86414 383.993 6.86621C383.646 4.86828 383.386 3.65214 383.039 2.78348C382.692 1.91481 382.258 1.13302 381.824 0.611816C381.391 1.13302 381.044 1.91481 380.697 2.87035C380.35 3.82588 380.089 5.12888 379.829 7.1268C379.482 9.12473 379.135 11.8176 378.788 12.86C378.354 13.9024 377.921 13.2943 376.706 11.8176C375.491 10.3409 373.583 7.9086 371.674 6.60561C369.766 5.30261 367.857 4.95514 366.122 4.95514C364.387 4.95514 362.739 5.38947 360.223 6.43187C357.62 7.47427 354.15 9.29847 349.813 9.90653C345.475 10.5146 340.357 9.9934 337.841 9.7328C335.238 9.4722 335.238 9.4722 336.539 11.0358C337.841 12.5994 340.443 15.7266 342.525 18.8538C344.607 21.981 346.082 25.0213 347.644 26.9324C349.205 28.8434 350.767 29.6252 352.328 29.6252C353.89 29.6252 355.365 28.8434 356.84 27.0192C358.314 25.195 359.876 22.1547 359.963 20.1568C360.049 18.1589 358.835 17.0296 359.269 16.1609C359.702 15.2054 361.785 14.4236 363.867 14.3367C365.949 14.2499 368.117 14.8579 369.766 16.0741C371.414 17.2902 372.629 19.0275 373.583 20.678C374.537 22.4153 375.231 24.0658 375.665 26.9324C376.099 29.7121 376.099 33.6211 375.752 36.4008C375.318 39.1806 374.537 40.7441 373.323 42.3077C372.108 43.8713 370.547 45.5218 368.378 46.9985C366.209 48.4753 363.433 49.8651 360.743 49.952C358.054 50.0389 355.365 48.7359 346.95 42.134C338.535 35.5322 324.221 23.5446 315.285 16.769C306.349 9.9934 302.619 8.4298 299.062 7.82174C295.505 7.30054 292.035 7.73487 288.478 9.12473C284.835 10.4277 281.104 12.6863 278.242 15.2054C275.379 17.8114 273.383 20.7648 271.822 23.9789C270.26 27.193 269.133 30.7545 269.219 35.011C269.306 39.2674 270.694 44.2188 272.95 48.3884C275.205 52.4711 278.415 55.6852 281.625 57.8568C284.922 60.0285 288.305 61.1578 291.862 61.0709C295.419 61.0709 299.062 59.8548 301.491 58.6386C303.92 57.3356 305.048 55.9458 306.696 56.1195C308.345 56.2933 310.514 58.0306 313.463 58.6386C316.413 59.3336 320.143 58.8992 322.052 58.6386C323.96 58.4649 323.96 58.4649 322.312 57.2488C320.664 56.0327 317.454 53.6873 315.198 50.9075C312.943 48.1278 311.728 44.9137 310.34 42.4815C308.952 39.9623 307.391 38.1381 305.222 38.1381C303.053 38.0513 300.364 39.7886 298.542 41.6997C296.633 43.6107 295.592 45.6955 295.419 47.346C295.245 49.0833 296.026 50.4732 296.373 51.1681C296.72 51.8631 296.72 51.8631 295.419 51.7762C294.031 51.6893 291.341 51.4287 288.999 50.2126C286.657 48.9965 284.575 46.8248 283.013 43.8713C281.451 40.9179 280.237 37.0957 280.671 33.3605C281.104 29.6252 283.1 25.9768 286.136 23.284C289.172 20.5911 293.337 18.9407 296.893 19.1144C300.45 19.2013 303.4 21.1123 312.422 28.4091C321.444 35.7059 336.453 48.3015 345.562 55.0771C354.671 61.8527 357.881 62.7214 361.004 62.3739C364.127 62.0264 367.25 60.4628 369.679 58.8124C372.108 57.2488 373.843 55.5983 375.405 54.2085C376.966 52.8186 378.268 51.6025 378.875 50.9944C379.569 50.3863 379.569 50.3863 379.916 51.255C382.779 58.1175 381.129 58.134 383.906 51.0813Z" stroke="#1D1D1D" style="stroke:#1D1D1D;stroke:color(display-p3 0.1129 0.1129 0.1129);stroke-opacity:1;" stroke-width="0.782615"/>
<path fill-rule="evenodd" clip-rule="evenodd" d="M609.3 51.0813C609.733 50.2126 609.733 50.2126 610.341 50.8207C610.948 51.4287 612.249 52.6449 613.811 54.0347C615.372 55.4246 617.107 57.075 619.537 58.6386C621.966 60.2022 625.002 61.8527 628.212 62.2002C631.335 62.5476 634.545 61.679 643.654 54.9034C652.763 48.1278 667.771 35.5322 676.793 28.2354C685.816 20.9386 688.765 19.0275 692.322 18.9407C695.879 18.8538 699.956 20.5042 703.079 23.1102C706.116 25.8031 708.111 29.4515 708.545 33.1868C708.979 36.922 707.764 40.7441 706.203 43.6976C704.641 46.6511 702.559 48.8227 700.217 50.0389C697.874 51.255 695.098 51.4287 693.797 51.6025C692.409 51.6893 692.409 51.6893 692.843 50.9944C693.19 50.2995 693.97 48.9096 693.797 47.1723C693.623 45.4349 692.582 43.3501 690.674 41.5259C688.765 39.6149 686.076 37.9644 683.994 37.9644C681.825 38.0513 680.263 39.8755 678.875 42.3077C677.487 44.8269 676.273 47.9541 674.017 50.7338C671.762 53.5135 668.552 55.8589 666.904 57.0751C665.255 58.2912 665.255 58.2912 667.164 58.4649C669.072 58.6386 672.803 59.073 675.752 58.4649C678.702 57.77 680.871 56.1195 682.519 55.9458C684.167 55.7721 685.295 57.2488 687.724 58.4649C690.153 59.7679 693.797 60.8972 697.354 60.8972C700.911 60.8972 704.294 59.8548 707.591 57.6831C710.887 55.5115 714.01 52.2974 716.266 48.2147C718.521 44.1319 719.91 39.0937 719.996 34.8372C720.083 30.5808 718.955 27.0192 717.394 23.8052C715.832 20.5911 713.837 17.6377 710.974 15.0317C708.111 12.4257 704.381 10.254 700.737 8.951C697.094 7.648 693.71 7.1268 690.153 7.648C686.596 8.1692 682.953 9.81967 673.931 16.5953C664.995 23.3708 650.768 35.3584 642.266 41.9603C633.851 48.5621 631.161 49.8651 628.472 49.7783C625.783 49.6914 623.007 48.3015 620.838 46.8248C618.669 45.3481 617.107 43.6976 615.893 42.134C614.678 40.5704 613.811 38.9199 613.464 36.2271C613.03 33.4474 613.117 29.5384 613.551 26.7586C613.984 23.9789 614.678 22.2416 615.633 20.5042C616.587 18.7669 617.801 17.0296 619.45 15.9003C621.098 14.6842 623.267 14.0761 625.349 14.163C627.431 14.2499 629.513 15.0317 629.947 15.9872C630.381 16.9427 629.079 17.9851 629.253 19.983C629.34 21.981 630.901 24.9344 632.376 26.8455C633.851 28.6697 635.326 29.4515 636.887 29.4515C638.449 29.4515 640.01 28.6697 641.572 26.7586C643.133 24.8476 644.608 21.8072 646.69 18.6801C648.772 15.5529 651.375 12.4257 652.676 10.8621C653.977 9.29847 653.977 9.29847 651.375 9.55907C648.772 9.81967 643.654 10.3409 639.403 9.7328C635.065 9.12473 631.595 7.3874 628.993 6.25814C626.39 5.21574 624.828 4.78141 623.093 4.78141C621.358 4.78141 619.45 5.04201 617.541 6.43187C615.633 7.73487 613.724 10.1671 612.51 11.6439C611.295 13.1206 610.861 13.7287 610.427 12.6863C609.994 11.6439 609.733 8.86414 609.386 6.86621C609.039 4.86828 608.779 3.65214 608.432 2.78348C608.085 1.91481 607.651 1.13302 607.218 0.611816C606.784 1.13302 606.437 1.91481 606.09 2.87035C605.743 3.82588 605.483 5.12888 605.222 7.1268C604.875 9.12473 604.528 11.8176 604.181 12.86C603.748 13.9024 603.314 13.2943 602.099 11.8176C600.885 10.3409 598.976 7.9086 597.068 6.60561C595.159 5.30261 593.25 4.95514 591.515 4.95514C589.78 4.95514 588.132 5.38947 585.616 6.43187C583.014 7.47427 579.543 9.29847 575.206 9.90653C570.868 10.5146 565.75 9.9934 563.234 9.7328C560.631 9.4722 560.631 9.4722 561.933 11.0358C563.234 12.5994 565.837 15.7266 567.919 18.8538C570.001 21.981 571.475 25.0213 573.037 26.9324C574.599 28.8434 576.16 29.6252 577.722 29.6252C579.283 29.6252 580.758 28.8434 582.233 27.0192C583.708 25.195 585.269 22.1547 585.356 20.1568C585.443 18.1589 584.228 17.0296 584.662 16.1609C585.096 15.2054 587.178 14.4236 589.26 14.3367C591.342 14.2499 593.511 14.8579 595.159 16.0741C596.807 17.2902 598.022 19.0275 598.976 20.678C599.93 22.4153 600.624 24.0658 601.058 26.9324C601.492 29.7121 601.492 33.6211 601.145 36.4008C600.711 39.1806 599.93 40.7441 598.716 42.3077C597.501 43.8713 595.94 45.5218 593.771 46.9985C591.602 48.4753 588.826 49.8651 586.137 49.952C583.447 50.0389 580.758 48.7359 572.343 42.134C563.928 35.5322 549.614 23.5446 540.678 16.769C531.743 9.9934 528.012 8.4298 524.455 7.82174C520.899 7.30054 517.428 7.73487 513.872 9.12473C510.228 10.4277 506.498 12.6863 503.635 15.2054C500.772 17.8114 498.777 20.7648 497.215 23.9789C495.654 27.193 494.526 30.7545 494.612 35.011C494.699 39.2674 496.087 44.2188 498.343 48.3884C500.598 52.4711 503.808 55.6852 507.018 57.8568C510.315 60.0285 513.698 61.1578 517.255 61.0709C520.812 61.0709 524.455 59.8548 526.885 58.6386C529.314 57.3356 530.441 55.9458 532.09 56.1195C533.738 56.2933 535.907 58.0306 538.856 58.6386C541.806 59.3336 545.536 58.8992 547.445 58.6386C549.354 58.4649 549.353 58.4649 547.705 57.2488C546.057 56.0327 542.847 53.6873 540.591 50.9075C538.336 48.1278 537.121 44.9137 535.733 42.4815C534.345 39.9623 532.784 38.1381 530.615 38.1381C528.446 38.0513 525.757 39.7886 523.935 41.6997C522.026 43.6107 520.985 45.6955 520.812 47.346C520.638 49.0833 521.419 50.4732 521.766 51.1681C522.113 51.8631 522.113 51.8631 520.812 51.7762C519.424 51.6893 516.734 51.4287 514.392 50.2126C512.05 48.9965 509.968 46.8248 508.406 43.8713C506.845 40.9179 505.63 37.0957 506.064 33.3605C506.498 29.6252 508.493 25.9768 511.529 23.284C514.566 20.5911 518.73 18.9407 522.287 19.1144C525.843 19.2013 528.793 21.1123 537.815 28.4091C546.838 35.7059 561.846 48.3015 570.955 55.0771C580.064 61.8527 583.274 62.7214 586.397 62.3739C589.52 62.0264 592.643 60.4628 595.072 58.8124C597.501 57.2488 599.236 55.5983 600.798 54.2085C602.359 52.8186 603.661 51.6025 604.268 50.9944C604.962 50.3863 604.962 50.3863 605.309 51.255C608.172 58.1175 606.522 58.134 609.3 51.0813Z" stroke="#1D1D1D" style="stroke:#1D1D1D;stroke:color(display-p3 0.1129 0.1129 0.1129);stroke-opacity:1;" stroke-width="0.782615"/>
</g>
<g opacity="0.34">
<path fill-rule="evenodd" clip-rule="evenodd" d="M834.693 51.0813C835.127 50.2126 835.127 50.2126 835.734 50.8207C836.341 51.4287 837.642 52.6449 839.204 54.0347C840.766 55.4246 842.501 57.075 844.93 58.6386C847.359 60.2022 850.395 61.8527 853.605 62.2002C856.728 62.5476 859.938 61.679 869.047 54.9034C878.156 48.1278 893.164 35.5322 902.187 28.2354C911.209 20.9386 914.158 19.0275 917.715 18.9407C921.272 18.8538 925.35 20.5042 928.473 23.1102C931.509 25.8031 933.504 29.4515 933.938 33.1868C934.372 36.922 933.157 40.7441 931.596 43.6976C930.034 46.6511 927.952 48.8227 925.61 50.0389C923.267 51.255 920.491 51.4287 919.19 51.6025C917.802 51.6893 917.802 51.6893 918.236 50.9944C918.583 50.2995 919.364 48.9096 919.19 47.1723C919.017 45.4349 917.976 43.3501 916.067 41.5259C914.158 39.6149 911.469 37.9644 909.387 37.9644C907.218 38.0513 905.657 39.8755 904.269 42.3077C902.881 44.8269 901.666 47.9541 899.41 50.7338C897.155 53.5135 893.945 55.8589 892.297 57.0751C890.648 58.2912 890.648 58.2912 892.557 58.4649C894.466 58.6386 898.196 59.073 901.146 58.4649C904.095 57.77 906.264 56.1195 907.912 55.9458C909.561 55.7721 910.688 57.2488 913.117 58.4649C915.546 59.7679 919.19 60.8972 922.747 60.8972C926.304 60.8972 929.687 59.8548 932.984 57.6831C936.28 55.5115 939.404 52.2974 941.659 48.2147C943.915 44.1319 945.303 39.0937 945.389 34.8372C945.476 30.5808 944.348 27.0192 942.787 23.8052C941.225 20.5911 939.23 17.6377 936.367 15.0317C933.504 12.4257 929.774 10.254 926.13 8.951C922.487 7.648 919.103 7.1268 915.546 7.648C911.99 8.1692 908.346 9.81967 899.324 16.5953C890.388 23.3708 876.161 35.3584 867.659 41.9603C859.244 48.5621 856.555 49.8651 853.865 49.7783C851.176 49.6914 848.4 48.3015 846.231 46.8248C844.062 45.3481 842.501 43.6976 841.286 42.134C840.072 40.5704 839.204 38.9199 838.857 36.2271C838.423 33.4474 838.51 29.5384 838.944 26.7586C839.378 23.9789 840.072 22.2416 841.026 20.5042C841.98 18.7669 843.195 17.0296 844.843 15.9003C846.491 14.6842 848.66 14.0761 850.742 14.163C852.824 14.2499 854.906 15.0317 855.34 15.9872C855.774 16.9427 854.473 17.9851 854.646 19.983C854.733 21.981 856.294 24.9344 857.769 26.8455C859.244 28.6697 860.719 29.4515 862.28 29.4515C863.842 29.4515 865.403 28.6697 866.965 26.7586C868.526 24.8476 870.001 21.8072 872.083 18.6801C874.165 15.5529 876.768 12.4257 878.069 10.8621C879.371 9.29847 879.371 9.29847 876.768 9.55907C874.165 9.81967 869.047 10.3409 864.796 9.7328C860.458 9.12473 856.988 7.3874 854.386 6.25814C851.783 5.21574 850.222 4.78141 848.487 4.78141C846.752 4.78141 844.843 5.04201 842.934 6.43187C841.026 7.73487 839.117 10.1671 837.903 11.6439C836.688 13.1206 836.254 13.7287 835.821 12.6863C835.387 11.6439 835.127 8.86414 834.78 6.86621C834.433 4.86828 834.172 3.65214 833.825 2.78348C833.478 1.91481 833.045 1.13302 832.611 0.611816C832.177 1.13302 831.83 1.91481 831.483 2.87035C831.136 3.82588 830.876 5.12888 830.615 7.1268C830.268 9.12473 829.921 11.8176 829.574 12.86C829.141 13.9024 828.707 13.2943 827.492 11.8176C826.278 10.3409 824.369 7.9086 822.461 6.60561C820.552 5.30261 818.644 4.95514 816.909 4.95514C815.173 4.95514 813.525 5.38947 811.009 6.43187C808.407 7.47427 804.937 9.29847 800.599 9.90653C796.261 10.5146 791.143 9.9934 788.627 9.7328C786.025 9.4722 786.025 9.4722 787.326 11.0358C788.627 12.5994 791.23 15.7266 793.312 18.8538C795.394 21.981 796.869 25.0213 798.43 26.9324C799.992 28.8434 801.553 29.6252 803.115 29.6252C804.676 29.6252 806.151 28.8434 807.626 27.0192C809.101 25.195 810.662 22.1547 810.749 20.1568C810.836 18.1589 809.621 17.0296 810.055 16.1609C810.489 15.2054 812.571 14.4236 814.653 14.3367C816.735 14.2499 818.904 14.8579 820.552 16.0741C822.2 17.2902 823.415 19.0275 824.369 20.678C825.324 22.4153 826.018 24.0658 826.451 26.9324C826.885 29.7121 826.885 33.6211 826.538 36.4008C826.104 39.1806 825.324 40.7441 824.109 42.3077C822.894 43.8713 821.333 45.5218 819.164 46.9985C816.995 48.4753 814.219 49.8651 811.53 49.952C808.841 50.0389 806.151 48.7359 797.736 42.134C789.321 35.5322 775.007 23.5446 766.071 16.769C757.136 9.9934 753.405 8.4298 749.849 7.82174C746.292 7.30054 742.822 7.73487 739.265 9.12473C735.621 10.4277 731.891 12.6863 729.028 15.2054C726.165 17.8114 724.17 20.7648 722.608 23.9789C721.047 27.193 719.919 30.7545 720.006 35.011C720.092 39.2674 721.48 44.2188 723.736 48.3884C725.992 52.4711 729.201 55.6852 732.411 57.8568C735.708 60.0285 739.091 61.1578 742.648 61.0709C746.205 61.0709 749.849 59.8548 752.278 58.6386C754.707 57.3356 755.835 55.9458 757.483 56.1195C759.131 56.2933 761.3 58.0306 764.25 58.6386C767.199 59.3336 770.93 58.8992 772.838 58.6386C774.747 58.4649 774.747 58.4649 773.098 57.2488C771.45 56.0327 768.24 53.6873 765.985 50.9075C763.729 48.1278 762.515 44.9137 761.126 42.4815C759.738 39.9623 758.177 38.1381 756.008 38.1381C753.839 38.0513 751.15 39.7886 749.328 41.6997C747.42 43.6107 746.379 45.6955 746.205 47.346C746.032 49.0833 746.812 50.4732 747.159 51.1681C747.506 51.8631 747.506 51.8631 746.205 51.7762C744.817 51.6893 742.128 51.4287 739.785 50.2126C737.443 48.9965 735.361 46.8248 733.799 43.8713C732.238 40.9179 731.023 37.0957 731.457 33.3605C731.891 29.6252 733.886 25.9768 736.922 23.284C739.959 20.5911 744.123 18.9407 747.68 19.1144C751.237 19.2013 754.186 21.1123 763.209 28.4091C772.231 35.7059 787.239 48.3015 796.348 55.0771C805.457 61.8527 808.667 62.7214 811.79 62.3739C814.913 62.0264 818.036 60.4628 820.465 58.8124C822.894 57.2488 824.63 55.5983 826.191 54.2085C827.753 52.8186 829.054 51.6025 829.661 50.9944C830.355 50.3863 830.355 50.3863 830.702 51.255C833.565 58.1175 831.915 58.134 834.693 51.0813Z" stroke="#1D1D1D" style="stroke:#1D1D1D;stroke:color(display-p3 0.1129 0.1129 0.1129);stroke-opacity:1;" stroke-width="0.782615"/>
<path fill-rule="evenodd" clip-rule="evenodd" d="M1060.09 51.0813C1060.52 50.2126 1060.52 50.2126 1061.13 50.8207C1061.73 51.4287 1063.04 52.6449 1064.6 54.0347C1066.16 55.4246 1067.89 57.075 1070.32 58.6386C1072.75 60.2022 1075.79 61.8527 1079 62.2002C1082.12 62.5476 1085.33 61.679 1094.44 54.9034C1103.55 48.1278 1118.56 35.5322 1127.58 28.2354C1136.6 20.9386 1139.55 19.0275 1143.11 18.9407C1146.67 18.8538 1150.74 20.5042 1153.87 23.1102C1156.9 25.8031 1158.9 29.4515 1159.33 33.1868C1159.77 36.922 1158.55 40.7441 1156.99 43.6976C1155.43 46.6511 1153.35 48.8227 1151 50.0389C1148.66 51.255 1145.88 51.4287 1144.58 51.6025C1143.2 51.6893 1143.2 51.6893 1143.63 50.9944C1143.98 50.2995 1144.76 48.9096 1144.58 47.1723C1144.41 45.4349 1143.37 43.3501 1141.46 41.5259C1139.55 39.6149 1136.86 37.9644 1134.78 37.9644C1132.61 38.0513 1131.05 39.8755 1129.66 42.3077C1128.27 44.8269 1127.06 47.9541 1124.8 50.7338C1122.55 53.5135 1119.34 55.8589 1117.69 57.0751C1116.04 58.2912 1116.04 58.2912 1117.95 58.4649C1119.86 58.6386 1123.59 59.073 1126.54 58.4649C1129.49 57.77 1131.66 56.1195 1133.31 55.9458C1134.95 55.7721 1136.08 57.2488 1138.51 58.4649C1140.94 59.7679 1144.58 60.8972 1148.14 60.8972C1151.7 60.8972 1155.08 59.8548 1158.38 57.6831C1161.67 55.5115 1164.8 52.2974 1167.05 48.2147C1169.31 44.1319 1170.7 39.0937 1170.78 34.8372C1170.87 30.5808 1169.74 27.0192 1168.18 23.8052C1166.62 20.5911 1164.62 17.6377 1161.76 15.0317C1158.9 12.4257 1155.17 10.254 1151.52 8.951C1147.88 7.648 1144.5 7.1268 1140.94 7.648C1137.38 8.1692 1133.74 9.81967 1124.72 16.5953C1115.78 23.3708 1101.55 35.3584 1093.05 41.9603C1084.64 48.5621 1081.95 49.8651 1079.26 49.7783C1076.57 49.6914 1073.79 48.3015 1071.62 46.8248C1069.46 45.3481 1067.89 43.6976 1066.68 42.134C1065.46 40.5704 1064.6 38.9199 1064.25 36.2271C1063.82 33.4474 1063.9 29.5384 1064.34 26.7586C1064.77 23.9789 1065.46 22.2416 1066.42 20.5042C1067.37 18.7669 1068.59 17.0296 1070.24 15.9003C1071.88 14.6842 1074.05 14.0761 1076.14 14.163C1078.22 14.2499 1080.3 15.0317 1080.73 15.9872C1081.17 16.9427 1079.87 17.9851 1080.04 19.983C1080.13 21.981 1081.69 24.9344 1083.16 26.8455C1084.64 28.6697 1086.11 29.4515 1087.67 29.4515C1089.23 29.4515 1090.8 28.6697 1092.36 26.7586C1093.92 24.8476 1095.39 21.8072 1097.48 18.6801C1099.56 15.5529 1102.16 12.4257 1103.46 10.8621C1104.76 9.29847 1104.76 9.29847 1102.16 9.55907C1099.56 9.81967 1094.44 10.3409 1090.19 9.7328C1085.85 9.12473 1082.38 7.3874 1079.78 6.25814C1077.18 5.21574 1075.61 4.78141 1073.88 4.78141C1072.14 4.78141 1070.24 5.04201 1068.33 6.43187C1066.42 7.73487 1064.51 10.1671 1063.3 11.6439C1062.08 13.1206 1061.65 13.7287 1061.21 12.6863C1060.78 11.6439 1060.52 8.86414 1060.17 6.86621C1059.83 4.86828 1059.57 3.65214 1059.22 2.78348C1058.87 1.91481 1058.44 1.13302 1058 0.611816C1057.57 1.13302 1057.22 1.91481 1056.88 2.87035C1056.53 3.82588 1056.27 5.12888 1056.01 7.1268C1055.66 9.12473 1055.31 11.8176 1054.97 12.86C1054.53 13.9024 1054.1 13.2943 1052.89 11.8176C1051.67 10.3409 1049.76 7.9086 1047.85 6.60561C1045.95 5.30261 1044.04 4.95514 1042.3 4.95514C1040.57 4.95514 1038.92 5.38947 1036.4 6.43187C1033.8 7.47427 1030.33 9.29847 1025.99 9.90653C1021.65 10.5146 1016.54 9.9934 1014.02 9.7328C1011.42 9.4722 1011.42 9.4722 1012.72 11.0358C1014.02 12.5994 1016.62 15.7266 1018.7 18.8538C1020.79 21.981 1022.26 25.0213 1023.82 26.9324C1025.38 28.8434 1026.95 29.6252 1028.51 29.6252C1030.07 29.6252 1031.54 28.8434 1033.02 27.0192C1034.49 25.195 1036.06 22.1547 1036.14 20.1568C1036.23 18.1589 1035.01 17.0296 1035.45 16.1609C1035.88 15.2054 1037.96 14.4236 1040.05 14.3367C1042.13 14.2499 1044.3 14.8579 1045.95 16.0741C1047.59 17.2902 1048.81 19.0275 1049.76 20.678C1050.72 22.4153 1051.41 24.0658 1051.84 26.9324C1052.28 29.7121 1052.28 33.6211 1051.93 36.4008C1051.5 39.1806 1050.72 40.7441 1049.5 42.3077C1048.29 43.8713 1046.73 45.5218 1044.56 46.9985C1042.39 48.4753 1039.61 49.8651 1036.92 49.952C1034.23 50.0389 1031.54 48.7359 1023.13 42.134C1014.71 35.5322 1000.4 23.5446 991.465 16.769C982.529 9.9934 978.799 8.4298 975.242 7.82174C971.685 7.30054 968.215 7.73487 964.658 9.12473C961.014 10.4277 957.284 12.6863 954.421 15.2054C951.558 17.8114 949.563 20.7648 948.001 23.9789C946.44 27.193 945.312 30.7545 945.399 35.011C945.486 39.2674 946.874 44.2188 949.129 48.3884C951.385 52.4711 954.595 55.6852 957.805 57.8568C961.101 60.0285 964.484 61.1578 968.041 61.0709C971.598 61.0709 975.242 59.8548 977.671 58.6386C980.1 57.3356 981.228 55.9458 982.876 56.1195C984.524 56.2933 986.693 58.0306 989.643 58.6386C992.592 59.3336 996.323 58.8992 998.231 58.6386C1000.14 58.4649 1000.14 58.4649 998.492 57.2488C996.843 56.0327 993.633 53.6873 991.378 50.9075C989.122 48.1278 987.908 44.9137 986.52 42.4815C985.132 39.9623 983.57 38.1381 981.401 38.1381C979.232 38.0513 976.543 39.7886 974.721 41.6997C972.813 43.6107 971.772 45.6955 971.598 47.346C971.425 49.0833 972.205 50.4732 972.552 51.1681C972.899 51.8631 972.899 51.8631 971.598 51.7762C970.21 51.6893 967.521 51.4287 965.178 50.2126C962.836 48.9965 960.754 46.8248 959.193 43.8713C957.631 40.9179 956.416 37.0957 956.85 33.3605C957.284 29.6252 959.279 25.9768 962.316 23.284C965.352 20.5911 969.516 18.9407 973.073 19.1144C976.63 19.2013 979.579 21.1123 988.602 28.4091C997.624 35.7059 1012.63 48.3015 1021.74 55.0771C1030.85 61.8527 1034.06 62.7214 1037.18 62.3739C1040.31 62.0264 1043.43 60.4628 1045.86 58.8124C1048.29 57.2488 1050.02 55.5983 1051.58 54.2085C1053.15 52.8186 1054.45 51.6025 1055.05 50.9944C1055.75 50.3863 1055.75 50.3863 1056.1 51.255C1058.96 58.1175 1057.31 58.134 1060.09 51.0813Z" stroke="#1D1D1D" style="stroke:#1D1D1D;stroke:color(display-p3 0.1129 0.1129 0.1129);stroke-opacity:1;" stroke-width="0.782615"/>
<path fill-rule="evenodd" clip-rule="evenodd" d="M1285.48 51.0813C1285.91 50.2126 1285.91 50.2126 1286.52 50.8207C1287.13 51.4287 1288.43 52.6449 1289.99 54.0347C1291.55 55.4246 1293.29 57.075 1295.72 58.6386C1298.15 60.2022 1301.18 61.8527 1304.39 62.2002C1307.51 62.5476 1310.72 61.679 1319.83 54.9034C1328.94 48.1278 1343.95 35.5322 1352.97 28.2354C1362 20.9386 1364.94 19.0275 1368.5 18.9407C1372.06 18.8538 1376.14 20.5042 1379.26 23.1102C1382.3 25.8031 1384.29 29.4515 1384.72 33.1868C1385.16 36.922 1383.94 40.7441 1382.38 43.6976C1380.82 46.6511 1378.74 48.8227 1376.4 50.0389C1374.05 51.255 1371.28 51.4287 1369.98 51.6025C1368.59 51.6893 1368.59 51.6893 1369.02 50.9944C1369.37 50.2995 1370.15 48.9096 1369.98 47.1723C1369.8 45.4349 1368.76 43.3501 1366.85 41.5259C1364.94 39.6149 1362.26 37.9644 1360.17 37.9644C1358 38.0513 1356.44 39.8755 1355.06 42.3077C1353.67 44.8269 1352.45 47.9541 1350.2 50.7338C1347.94 53.5135 1344.73 55.8589 1343.08 57.0751C1341.43 58.2912 1341.43 58.2912 1343.34 58.4649C1345.25 58.6386 1348.98 59.073 1351.93 58.4649C1354.88 57.77 1357.05 56.1195 1358.7 55.9458C1360.35 55.7721 1361.47 57.2488 1363.9 58.4649C1366.33 59.7679 1369.98 60.8972 1373.53 60.8972C1377.09 60.8972 1380.47 59.8548 1383.77 57.6831C1387.07 55.5115 1390.19 52.2974 1392.45 48.2147C1394.7 44.1319 1396.09 39.0937 1396.18 34.8372C1396.26 30.5808 1395.13 27.0192 1393.57 23.8052C1392.01 20.5911 1390.02 17.6377 1387.15 15.0317C1384.29 12.4257 1380.56 10.254 1376.92 8.951C1373.27 7.648 1369.89 7.1268 1366.33 7.648C1362.78 8.1692 1359.13 9.81967 1350.11 16.5953C1341.17 23.3708 1326.95 35.3584 1318.45 41.9603C1310.03 48.5621 1307.34 49.8651 1304.65 49.7783C1301.96 49.6914 1299.19 48.3015 1297.02 46.8248C1294.85 45.3481 1293.29 43.6976 1292.07 42.134C1290.86 40.5704 1289.99 38.9199 1289.64 36.2271C1289.21 33.4474 1289.3 29.5384 1289.73 26.7586C1290.16 23.9789 1290.86 22.2416 1291.81 20.5042C1292.77 18.7669 1293.98 17.0296 1295.63 15.9003C1297.28 14.6842 1299.45 14.0761 1301.53 14.163C1303.61 14.2499 1305.69 15.0317 1306.13 15.9872C1306.56 16.9427 1305.26 17.9851 1305.43 19.983C1305.52 21.981 1307.08 24.9344 1308.56 26.8455C1310.03 28.6697 1311.51 29.4515 1313.07 29.4515C1314.63 29.4515 1316.19 28.6697 1317.75 26.7586C1319.31 24.8476 1320.79 21.8072 1322.87 18.6801C1324.95 15.5529 1327.55 12.4257 1328.86 10.8621C1330.16 9.29847 1330.16 9.29847 1327.55 9.55907C1324.95 9.81967 1319.83 10.3409 1315.58 9.7328C1311.24 9.12473 1307.77 7.3874 1305.17 6.25814C1302.57 5.21574 1301.01 4.78141 1299.27 4.78141C1297.54 4.78141 1295.63 5.04201 1293.72 6.43187C1291.81 7.73487 1289.9 10.1671 1288.69 11.6439C1287.47 13.1206 1287.04 13.7287 1286.61 12.6863C1286.17 11.6439 1285.91 8.86414 1285.57 6.86621C1285.22 4.86828 1284.96 3.65214 1284.61 2.78348C1284.26 1.91481 1283.83 1.13302 1283.4 0.611816C1282.96 1.13302 1282.62 1.91481 1282.27 2.87035C1281.92 3.82588 1281.66 5.12888 1281.4 7.1268C1281.05 9.12473 1280.71 11.8176 1280.36 12.86C1279.93 13.9024 1279.49 13.2943 1278.28 11.8176C1277.06 10.3409 1275.16 7.9086 1273.25 6.60561C1271.34 5.30261 1269.43 4.95514 1267.69 4.95514C1265.96 4.95514 1264.31 5.38947 1261.8 6.43187C1259.19 7.47427 1255.72 9.29847 1251.39 9.90653C1247.05 10.5146 1241.93 9.9934 1239.41 9.7328C1236.81 9.4722 1236.81 9.4722 1238.11 11.0358C1239.41 12.5994 1242.02 15.7266 1244.1 18.8538C1246.18 21.981 1247.66 25.0213 1249.22 26.9324C1250.78 28.8434 1252.34 29.6252 1253.9 29.6252C1255.46 29.6252 1256.94 28.8434 1258.41 27.0192C1259.89 25.195 1261.45 22.1547 1261.54 20.1568C1261.62 18.1589 1260.41 17.0296 1260.84 16.1609C1261.28 15.2054 1263.36 14.4236 1265.44 14.3367C1267.52 14.2499 1269.69 14.8579 1271.34 16.0741C1272.99 17.2902 1274.2 19.0275 1275.16 20.678C1276.11 22.4153 1276.8 24.0658 1277.24 26.9324C1277.67 29.7121 1277.67 33.6211 1277.32 36.4008C1276.89 39.1806 1276.11 40.7441 1274.9 42.3077C1273.68 43.8713 1272.12 45.5218 1269.95 46.9985C1267.78 48.4753 1265.01 49.8651 1262.32 49.952C1259.63 50.0389 1256.94 48.7359 1248.52 42.134C1240.11 35.5322 1225.79 23.5446 1216.86 16.769C1207.92 9.9934 1204.19 8.4298 1200.64 7.82174C1197.08 7.30054 1193.61 7.73487 1190.05 9.12473C1186.41 10.4277 1182.68 12.6863 1179.81 15.2054C1176.95 17.8114 1174.96 20.7648 1173.39 23.9789C1171.83 27.193 1170.71 30.7545 1170.79 35.011C1170.88 39.2674 1172.27 44.2188 1174.52 48.3884C1176.78 52.4711 1179.99 55.6852 1183.2 57.8568C1186.49 60.0285 1189.88 61.1578 1193.43 61.0709C1196.99 61.0709 1200.64 59.8548 1203.06 58.6386C1205.49 57.3356 1206.62 55.9458 1208.27 56.1195C1209.92 56.2933 1212.09 58.0306 1215.04 58.6386C1217.99 59.3336 1221.72 58.8992 1223.62 58.6386C1225.53 58.4649 1225.53 58.4649 1223.88 57.2488C1222.24 56.0327 1219.03 53.6873 1216.77 50.9075C1214.52 48.1278 1213.3 44.9137 1211.91 42.4815C1210.52 39.9623 1208.96 38.1381 1206.79 38.1381C1204.63 38.0513 1201.94 39.7886 1200.11 41.6997C1198.21 43.6107 1197.16 45.6955 1196.99 47.346C1196.82 49.0833 1197.6 50.4732 1197.95 51.1681C1198.29 51.8631 1198.29 51.8631 1196.99 51.7762C1195.6 51.6893 1192.91 51.4287 1190.57 50.2126C1188.23 48.9965 1186.15 46.8248 1184.59 43.8713C1183.02 40.9179 1181.81 37.0957 1182.24 33.3605C1182.68 29.6252 1184.67 25.9768 1187.71 23.284C1190.75 20.5911 1194.91 18.9407 1198.47 19.1144C1202.02 19.2013 1204.97 21.1123 1213.99 28.4091C1223.02 35.7059 1238.03 48.3015 1247.13 55.0771C1256.24 61.8527 1259.45 62.7214 1262.58 62.3739C1265.7 62.0264 1268.82 60.4628 1271.25 58.8124C1273.68 57.2488 1275.42 55.5983 1276.98 54.2085C1278.54 52.8186 1279.84 51.6025 1280.45 50.9944C1281.14 50.3863 1281.14 50.3863 1281.49 51.255C1284.35 58.1175 1282.7 58.134 1285.48 51.0813Z" stroke="#1D1D1D" style="stroke:#1D1D1D;stroke:color(display-p3 0.1129 0.1129 0.1129);stroke-opacity:1;" stroke-width="0.782615"/>
<path fill-rule="evenodd" clip-rule="evenodd" d="M1510.87 51.0813C1511.31 50.2126 1511.31 50.2126 1511.91 50.8207C1512.52 51.4287 1513.82 52.6449 1515.38 54.0347C1516.95 55.4246 1518.68 57.075 1521.11 58.6386C1523.54 60.2022 1526.57 61.8527 1529.78 62.2002C1532.91 62.5476 1536.12 61.679 1545.23 54.9034C1554.34 48.1278 1569.34 35.5322 1578.37 28.2354C1587.39 20.9386 1590.34 19.0275 1593.89 18.9407C1597.45 18.8538 1601.53 20.5042 1604.65 23.1102C1607.69 25.8031 1609.68 29.4515 1610.12 33.1868C1610.55 36.922 1609.34 40.7441 1607.78 43.6976C1606.21 46.6511 1604.13 48.8227 1601.79 50.0389C1599.45 51.255 1596.67 51.4287 1595.37 51.6025C1593.98 51.6893 1593.98 51.6893 1594.42 50.9944C1594.76 50.2995 1595.54 48.9096 1595.37 47.1723C1595.2 45.4349 1594.16 43.3501 1592.25 41.5259C1590.34 39.6149 1587.65 37.9644 1585.57 37.9644C1583.4 38.0513 1581.84 39.8755 1580.45 42.3077C1579.06 44.8269 1577.85 47.9541 1575.59 50.7338C1573.33 53.5135 1570.12 55.8589 1568.48 57.0751C1566.83 58.2912 1566.83 58.2912 1568.74 58.4649C1570.64 58.6386 1574.38 59.073 1577.32 58.4649C1580.27 57.77 1582.44 56.1195 1584.09 55.9458C1585.74 55.7721 1586.87 57.2488 1589.3 58.4649C1591.73 59.7679 1595.37 60.8972 1598.93 60.8972C1602.48 60.8972 1605.87 59.8548 1609.16 57.6831C1612.46 55.5115 1615.58 52.2974 1617.84 48.2147C1620.09 44.1319 1621.48 39.0937 1621.57 34.8372C1621.66 30.5808 1620.53 27.0192 1618.97 23.8052C1617.4 20.5911 1615.41 17.6377 1612.55 15.0317C1609.68 12.4257 1605.95 10.254 1602.31 8.951C1598.67 7.648 1595.28 7.1268 1591.73 7.648C1588.17 8.1692 1584.53 9.81967 1575.5 16.5953C1566.57 23.3708 1552.34 35.3584 1543.84 41.9603C1535.42 48.5621 1532.73 49.8651 1530.04 49.7783C1527.36 49.6914 1524.58 48.3015 1522.41 46.8248C1520.24 45.3481 1518.68 43.6976 1517.47 42.134C1516.25 40.5704 1515.38 38.9199 1515.04 36.2271C1514.6 33.4474 1514.69 29.5384 1515.12 26.7586C1515.56 23.9789 1516.25 22.2416 1517.21 20.5042C1518.16 18.7669 1519.37 17.0296 1521.02 15.9003C1522.67 14.6842 1524.84 14.0761 1526.92 14.163C1529 14.2499 1531.09 15.0317 1531.52 15.9872C1531.95 16.9427 1530.65 17.9851 1530.83 19.983C1530.91 21.981 1532.47 24.9344 1533.95 26.8455C1535.42 28.6697 1536.9 29.4515 1538.46 29.4515C1540.02 29.4515 1541.58 28.6697 1543.14 26.7586C1544.71 24.8476 1546.18 21.8072 1548.26 18.6801C1550.34 15.5529 1552.95 12.4257 1554.25 10.8621C1555.55 9.29847 1555.55 9.29847 1552.95 9.55907C1550.34 9.81967 1545.23 10.3409 1540.98 9.7328C1536.64 9.12473 1533.17 7.3874 1530.57 6.25814C1527.96 5.21574 1526.4 4.78141 1524.67 4.78141C1522.93 4.78141 1521.02 5.04201 1519.11 6.43187C1517.21 7.73487 1515.3 10.1671 1514.08 11.6439C1512.87 13.1206 1512.43 13.7287 1512 12.6863C1511.57 11.6439 1511.31 8.86414 1510.96 6.86621C1510.61 4.86828 1510.35 3.65214 1510 2.78348C1509.66 1.91481 1509.22 1.13302 1508.79 0.611816C1508.36 1.13302 1508.01 1.91481 1507.66 2.87035C1507.32 3.82588 1507.06 5.12888 1506.79 7.1268C1506.45 9.12473 1506.1 11.8176 1505.75 12.86C1505.32 13.9024 1504.89 13.2943 1503.67 11.8176C1502.46 10.3409 1500.55 7.9086 1498.64 6.60561C1496.73 5.30261 1494.82 4.95514 1493.09 4.95514C1491.35 4.95514 1489.7 5.38947 1487.19 6.43187C1484.59 7.47427 1481.12 9.29847 1476.78 9.90653C1472.44 10.5146 1467.32 9.9934 1464.81 9.7328C1462.2 9.4722 1462.2 9.4722 1463.51 11.0358C1464.81 12.5994 1467.41 15.7266 1469.49 18.8538C1471.57 21.981 1473.05 25.0213 1474.61 26.9324C1476.17 28.8434 1477.73 29.6252 1479.29 29.6252C1480.86 29.6252 1482.33 28.8434 1483.81 27.0192C1485.28 25.195 1486.84 22.1547 1486.93 20.1568C1487.02 18.1589 1485.8 17.0296 1486.23 16.1609C1486.67 15.2054 1488.75 14.4236 1490.83 14.3367C1492.91 14.2499 1495.08 14.8579 1496.73 16.0741C1498.38 17.2902 1499.59 19.0275 1500.55 20.678C1501.5 22.4153 1502.2 24.0658 1502.63 26.9324C1503.06 29.7121 1503.06 33.6211 1502.72 36.4008C1502.28 39.1806 1501.5 40.7441 1500.29 42.3077C1499.07 43.8713 1497.51 45.5218 1495.34 46.9985C1493.17 48.4753 1490.4 49.8651 1487.71 49.952C1485.02 50.0389 1482.33 48.7359 1473.92 42.134C1465.5 35.5322 1451.19 23.5446 1442.25 16.769C1433.32 9.9934 1429.58 8.4298 1426.03 7.82174C1422.47 7.30054 1419 7.73487 1415.44 9.12473C1411.8 10.4277 1408.07 12.6863 1405.21 15.2054C1402.34 17.8114 1400.35 20.7648 1398.79 23.9789C1397.23 27.193 1396.1 30.7545 1396.19 35.011C1396.27 39.2674 1397.66 44.2188 1399.92 48.3884C1402.17 52.4711 1405.38 55.6852 1408.59 57.8568C1411.89 60.0285 1415.27 61.1578 1418.83 61.0709C1422.38 61.0709 1426.03 59.8548 1428.46 58.6386C1430.89 57.3356 1432.01 55.9458 1433.66 56.1195C1435.31 56.2933 1437.48 58.0306 1440.43 58.6386C1443.38 59.3336 1447.11 58.8992 1449.02 58.6386C1450.93 58.4649 1450.93 58.4649 1449.28 57.2488C1447.63 56.0327 1444.42 53.6873 1442.16 50.9075C1439.91 48.1278 1438.69 44.9137 1437.31 42.4815C1435.92 39.9623 1434.36 38.1381 1432.19 38.1381C1430.02 38.0513 1427.33 39.7886 1425.51 41.6997C1423.6 43.6107 1422.56 45.6955 1422.38 47.346C1422.21 49.0833 1422.99 50.4732 1423.34 51.1681C1423.69 51.8631 1423.69 51.8631 1422.38 51.7762C1421 51.6893 1418.31 51.4287 1415.96 50.2126C1413.62 48.9965 1411.54 46.8248 1409.98 43.8713C1408.42 40.9179 1407.2 37.0957 1407.64 33.3605C1408.07 29.6252 1410.07 25.9768 1413.1 23.284C1416.14 20.5911 1420.3 18.9407 1423.86 19.1144C1427.42 19.2013 1430.37 21.1123 1439.39 28.4091C1448.41 35.7059 1463.42 48.3015 1472.53 55.0771C1481.64 61.8527 1484.85 62.7214 1487.97 62.3739C1491.09 62.0264 1494.22 60.4628 1496.64 58.8124C1499.07 57.2488 1500.81 55.5983 1502.37 54.2085C1503.93 52.8186 1505.23 51.6025 1505.84 50.9944C1506.53 50.3863 1506.53 50.3863 1506.88 51.255C1509.74 58.1175 1508.09 58.134 1510.87 51.0813Z" stroke="#1D1D1D" style="stroke:#1D1D1D;stroke:color(display-p3 0.1129 0.1129 0.1129);stroke-opacity:1;" stroke-width="0.782615"/>
</g>
</svg>
