<svg width="55" height="55" viewBox="0 0 55 55" fill="none" xmlns="http://www.w3.org/2000/svg">
<rect x="0.5" y="0.5" width="54" height="54" rx="27" stroke="#2E2E1F" stroke-opacity="0.12" style="stroke:#2E2E1F;stroke:color(display-p3 0.1804 0.1804 0.1216);stroke-opacity:0.12;"/>
<path d="M31.69 17.5H23.31C19.67 17.5 17.5 19.67 17.5 23.31V31.69C17.5 35.33 19.67 37.5 23.31 37.5H31.69C35.33 37.5 37.5 35.33 37.5 31.69V23.31C37.5 19.67 35.33 17.5 31.69 17.5ZM25.47 30.4L23.22 32.65C23.07 32.8 22.88 32.87 22.69 32.87C22.5 32.87 22.3 32.8 22.16 32.65L21.41 31.9C21.11 31.61 21.11 31.13 21.41 30.84C21.7 30.55 22.17 30.55 22.47 30.84L22.69 31.06L24.41 29.34C24.7 29.05 25.17 29.05 25.47 29.34C25.76 29.63 25.76 30.11 25.47 30.4ZM25.47 23.4L23.22 25.65C23.07 25.8 22.88 25.87 22.69 25.87C22.5 25.87 22.3 25.8 22.16 25.65L21.41 24.9C21.11 24.61 21.11 24.13 21.41 23.84C21.7 23.55 22.17 23.55 22.47 23.84L22.69 24.06L24.41 22.34C24.7 22.05 25.17 22.05 25.47 22.34C25.76 22.63 25.76 23.11 25.47 23.4ZM33.06 32.12H27.81C27.4 32.12 27.06 31.78 27.06 31.37C27.06 30.96 27.4 30.62 27.81 30.62H33.06C33.48 30.62 33.81 30.96 33.81 31.37C33.81 31.78 33.48 32.12 33.06 32.12ZM33.06 25.12H27.81C27.4 25.12 27.06 24.78 27.06 24.37C27.06 23.96 27.4 23.62 27.81 23.62H33.06C33.48 23.62 33.81 23.96 33.81 24.37C33.81 24.78 33.48 25.12 33.06 25.12Z" fill="#1D49C5" style="fill:#1D49C5;fill:color(display-p3 0.1137 0.2863 0.7725);fill-opacity:1;"/>
</svg>
