<svg width="55" height="55" viewBox="0 0 55 55" fill="none" xmlns="http://www.w3.org/2000/svg">
<rect x="0.5" y="0.5" width="54" height="54" rx="27" stroke="#2E2E1F" stroke-opacity="0.12" style="stroke:#2E2E1F;stroke:color(display-p3 0.1804 0.1804 0.1216);stroke-opacity:0.12;"/>
<path d="M27.5 15C24.225 15 21.5625 17.6625 21.5625 20.9375C21.5625 24.15 24.075 26.75 27.35 26.8625C27.45 26.85 27.55 26.85 27.625 26.8625C27.65 26.8625 27.6625 26.8625 27.6875 26.8625C27.7 26.8625 27.7 26.8625 27.7125 26.8625C30.9125 26.75 33.425 24.15 33.4375 20.9375C33.4375 17.6625 30.775 15 27.5 15Z" fill="#1D49C5" style="fill:#1D49C5;fill:color(display-p3 0.1137 0.2863 0.7725);fill-opacity:1;"/>
<path d="M33.85 30.2C30.3625 27.875 24.675 27.875 21.1625 30.2C19.575 31.25 18.7 32.6875 18.7 34.225C18.7 35.7625 19.575 37.1875 21.15 38.2375C22.9 39.4125 25.2 40 27.5 40C29.8 40 32.1 39.4125 33.85 38.2375C35.425 37.175 36.3 35.75 36.3 34.2C36.2875 32.675 35.425 31.2375 33.85 30.2ZM30.4125 33.2L27.2625 36.35C27.1125 36.5 26.9125 36.575 26.7125 36.575C26.5125 36.575 26.3125 36.4875 26.1625 36.35L24.5875 34.775C24.2875 34.475 24.2875 33.975 24.5875 33.675C24.8875 33.375 25.3875 33.375 25.6875 33.675L26.7125 34.7L29.3125 32.1C29.6125 31.8 30.1125 31.8 30.4125 32.1C30.725 32.4 30.725 32.9 30.4125 33.2Z" fill="#1D49C5" style="fill:#1D49C5;fill:color(display-p3 0.1137 0.2863 0.7725);fill-opacity:1;"/>
</svg>
